<svg xmlns="http://www.w3.org/2000/svg" viewBox="0 0 1200 630">
  <rect width="1200" height="630" fill="#131625"/>
  <g shape-rendering="crispEdges">
    <!-- Tamagotchi, 26px per pixel, 14×15 grid → 364×390, x=418 y=80 -->
    <g fill="#ff2e88">
      <rect x="574" y="80"  width="52"  height="26"/>
      <rect x="548" y="106" width="104" height="26"/>
      <rect x="496" y="132" width="208" height="26"/>
      <rect x="470" y="158" width="260" height="26"/>
      <rect x="418" y="184" width="364" height="26"/>
      <rect x="418" y="210" width="26"  height="78"/>
      <rect x="756" y="210" width="26"  height="78"/>
      <rect x="418" y="288" width="364" height="26"/>
      <rect x="418" y="314" width="52"  height="52"/>
      <rect x="522" y="314" width="52"  height="52"/>
      <rect x="626" y="314" width="52"  height="52"/>
      <rect x="730" y="314" width="52"  height="52"/>
      <rect x="418" y="366" width="364" height="26"/>
      <rect x="444" y="392" width="312" height="26"/>
      <rect x="470" y="418" width="260" height="26"/>
      <rect x="496" y="444" width="208" height="26"/>
    </g>
    <rect x="470" y="210" width="260" height="78" fill="#00e5ff"/>
    <rect x="574" y="236" width="52"  height="52" fill="#131625"/>
  </g>
  <text x="600" y="535" text-anchor="middle" fill="#f5f5f0"
        font-family="Inter, Arial, sans-serif" font-size="42" font-weight="700" letter-spacing="6">THOMAS FENDRICH</text>
  <text x="600" y="580" text-anchor="middle" fill="#00e5ff"
        font-family="'JetBrains Mono', monospace" font-size="20" letter-spacing="8">MAKER · HARDWARE · 3D · GAMES</text>
</svg>
