<svg xmlns="http://www.w3.org/2000/svg" viewBox="0 0 14 15" shape-rendering="crispEdges">
  <!-- Tamagotchi-vibe pixel logo, 14×15 grid, site palette -->
  <g fill="#ff2e88">
    <rect x="6"  y="0"  width="2"  height="1"/>
    <rect x="5"  y="1"  width="4"  height="1"/>
    <rect x="3"  y="2"  width="8"  height="1"/>
    <rect x="2"  y="3"  width="10" height="1"/>
    <rect x="0"  y="4"  width="14" height="1"/>
    <rect x="0"  y="5"  width="1"  height="3"/>
    <rect x="13" y="5"  width="1"  height="3"/>
    <rect x="0"  y="8"  width="14" height="1"/>
    <rect x="0"  y="9"  width="2"  height="2"/>
    <rect x="4"  y="9"  width="2"  height="2"/>
    <rect x="8"  y="9"  width="2"  height="2"/>
    <rect x="12" y="9"  width="2"  height="2"/>
    <rect x="0"  y="11" width="14" height="1"/>
    <rect x="1"  y="12" width="12" height="1"/>
    <rect x="2"  y="13" width="10" height="1"/>
    <rect x="3"  y="14" width="8"  height="1"/>
  </g>
  <!-- LCD screen -->
  <rect x="2" y="5" width="10" height="3" fill="#00e5ff"/>
  <!-- pet blob on screen -->
  <rect x="6" y="6" width="2" height="2" fill="#131625"/>
</svg>
